<svg width="60" height="60" viewBox="0 0 60 60" fill="none" xmlns="http://www.w3.org/2000/svg">
<g id="business and finance/globe">
<path id="Vector" d="M30 2.5C24.561 2.5 19.2442 4.11285 14.7218 7.13459C10.1995 10.1563 6.67473 14.4512 4.59333 19.4762C2.51192 24.5012 1.96732 30.0305 3.02842 35.365C4.08951 40.6995 6.70863 45.5995 10.5546 49.4454C14.4005 53.2914 19.3006 55.9105 24.635 56.9716C29.9695 58.0327 35.4988 57.4881 40.5238 55.4067C45.5488 53.3253 49.8437 49.8005 52.8654 45.2782C55.8872 40.7558 57.5 35.439 57.5 30C57.4914 22.7092 54.5913 15.7195 49.4359 10.5641C44.2806 5.40868 37.2908 2.5086 30 2.5ZM7.64751 32.5H15.0675C15.2128 38.5782 16.7578 44.541 19.5825 49.925C16.321 48.2165 13.5278 45.7349 11.4472 42.6973C9.36663 39.6596 8.06203 36.1585 7.64751 32.5ZM15.0675 27.5H7.64751C8.06203 23.8415 9.36663 20.3404 11.4472 17.3027C13.5278 14.2651 16.321 11.7835 19.5825 10.075C16.7578 15.459 15.2128 21.4218 15.0675 27.5ZM27.5 51.665C23.8925 49.325 20.5625 42.18 20.065 32.5H27.5V51.665ZM27.5 27.5H20.065C20.5625 17.82 23.8925 10.675 27.5 8.335V27.5ZM32.5 51.665V32.5H39.935C39.4375 42.18 36.1075 49.325 32.5 51.665ZM32.5 27.5V8.335C36.1075 10.675 39.4375 17.82 39.935 27.5H32.5ZM40.4175 49.925C43.2422 44.541 44.7872 38.5782 44.9325 32.5H52.3525C51.938 36.1585 50.6334 39.6596 48.5528 42.6973C46.4722 45.7349 43.679 48.2165 40.4175 49.925ZM44.9325 27.5C44.7872 21.4218 43.2422 15.459 40.4175 10.075C43.679 11.7835 46.4722 14.2651 48.5528 17.3027C50.6334 20.3404 51.938 23.8415 52.3525 27.5H44.9325Z" fill="#0DFF85"/>
</g>
</svg>
