<svg width="60" height="60" viewBox="0 0 60 60" fill="none" xmlns="http://www.w3.org/2000/svg">
<g id="interface/map">
<path id="Vector" d="M52.48 24.9502C52.4879 21.9984 51.9143 19.074 50.792 16.3438C49.6696 13.6137 48.0206 11.1314 45.9389 9.03861C41.7348 4.81201 36.0239 2.42859 30.0625 2.41268C24.1011 2.39676 18.3775 4.74966 14.1509 8.95376C9.92433 13.1579 7.54091 18.8688 7.525 24.8302C7.47221 31.7557 9.48264 38.5402 13.3001 44.3189C17.1175 50.0976 22.5691 54.6088 28.96 57.2777C29.2867 57.4256 29.6414 57.5015 30 57.5002C30.3612 57.5008 30.7184 57.4241 31.0475 57.2752C37.4189 54.6145 42.857 50.1221 46.6726 44.3674C50.4881 38.6127 52.5093 31.8548 52.48 24.9502ZM30 52.2502C24.7298 49.9299 20.2608 46.1074 17.1517 41.2605C14.0426 36.4137 12.4315 30.7578 12.52 25.0002C12.52 22.7047 12.9721 20.4316 13.8506 18.3109C14.729 16.1901 16.0166 14.2631 17.6398 12.64C19.2629 11.0168 21.1899 9.72922 23.3107 8.85076C25.4315 7.97231 27.7045 7.52018 30 7.52018C32.2955 7.52018 34.5685 7.97231 36.6893 8.85076C38.8101 9.72922 40.7371 11.0168 42.3602 12.64C43.9834 14.2631 45.271 16.1901 46.1494 18.3109C47.0279 20.4316 47.48 22.7047 47.48 25.0002C47.48 25.0527 47.48 25.1127 47.48 25.1627C47.5406 30.8937 45.9162 36.5163 42.8086 41.3319C39.7009 46.1476 35.247 49.9442 30 52.2502ZM35 25.0002C35 25.9891 34.7068 26.9558 34.1573 27.778C33.6079 28.6003 32.827 29.2411 31.9134 29.6196C30.9998 29.998 29.9945 30.097 29.0245 29.9041C28.0546 29.7112 27.1637 29.235 26.4645 28.5357C25.7652 27.8364 25.289 26.9455 25.0961 25.9756C24.9031 25.0057 25.0022 24.0004 25.3806 23.0868C25.759 22.1731 26.3999 21.3922 27.2222 20.8428C28.0444 20.2934 29.0111 20.0002 30 20.0002C31.3261 20.0002 32.5979 20.527 33.5355 21.4646C34.4732 22.4023 35 23.6741 35 25.0002Z" fill="#0DFF85"/>
</g>
</svg>
