<svg width="60" height="60" viewBox="0 0 60 60" fill="none" xmlns="http://www.w3.org/2000/svg">
<g id="sports/medal">
<path id="Vector" d="M2.78247 46.1551C2.99373 46.5607 3.31218 46.9005 3.70316 47.1377C4.09415 47.3748 4.54268 47.5002 4.99997 47.5001H13.0475L15.075 55.6076C15.1942 56.0834 15.4507 56.5136 15.8126 56.8447C16.1744 57.1757 16.6257 57.393 17.1102 57.4695C17.5946 57.546 18.0909 57.4783 18.5372 57.2748C18.9834 57.0713 19.36 56.7411 19.62 56.3251L30 39.7176L40.38 56.3251C40.6399 56.7411 41.0165 57.0713 41.4628 57.2748C41.909 57.4783 42.4053 57.546 42.8898 57.4695C43.3742 57.393 43.8255 57.1757 44.1874 56.8447C44.5493 56.5136 44.8058 56.0834 44.925 55.6076L46.9525 47.5001H55C55.457 47.4999 55.9053 47.3743 56.296 47.1371C56.6867 46.8999 57.0049 46.5601 57.216 46.1547C57.4271 45.7493 57.523 45.2937 57.4933 44.8376C57.4636 44.3815 57.3094 43.9422 57.0475 43.5676L45.7925 27.5001C47.066 24.8326 47.6431 21.8859 47.4699 18.935C47.2967 15.9841 46.3788 13.1251 44.8019 10.6249C43.225 8.12464 41.0405 6.06458 38.4521 4.6369C35.8638 3.20922 32.9559 2.46045 30 2.46045C27.044 2.46045 24.1362 3.20922 21.5478 4.6369C18.9595 6.06458 16.7749 8.12464 15.198 10.6249C13.6211 13.1251 12.7033 15.9841 12.53 18.935C12.3568 21.8859 12.9339 24.8326 14.2075 27.5001L2.95747 43.5801C2.69684 43.9528 2.54282 44.3896 2.51198 44.8433C2.48114 45.2971 2.57466 45.7506 2.78247 46.1551ZM50.1975 42.5001H45C44.4426 42.5002 43.9013 42.6864 43.4619 43.0293C43.0226 43.3722 42.7104 43.852 42.575 44.3926L41.5 48.6851L34.1825 36.9751C37.4814 36.1591 40.4709 34.3989 42.785 31.9101L50.1975 42.5001ZM30 7.50014C32.4722 7.50014 34.889 8.23325 36.9446 9.60677C39.0002 10.9803 40.6024 12.9325 41.5485 15.2166C42.4946 17.5007 42.7421 20.014 42.2598 22.4388C41.7775 24.8635 40.587 27.0908 38.8388 28.839C37.0906 30.5871 34.8634 31.7776 32.4386 32.26C30.0138 32.7423 27.5005 32.4947 25.2164 31.5486C22.9323 30.6025 20.9801 29.0004 19.6066 26.9448C18.2331 24.8892 17.5 22.4724 17.5 20.0001C17.5039 16.6862 18.8222 13.509 21.1655 11.1657C23.5089 8.82235 26.686 7.50411 30 7.50014ZM17.215 31.9101C19.5291 34.3989 22.5185 36.1591 25.8175 36.9751L18.5 48.6851L17.425 44.3926C17.2895 43.852 16.9773 43.3722 16.538 43.0293C16.0986 42.6864 15.5573 42.5002 15 42.5001H9.80247L17.215 31.9101ZM25 20.0001C25 19.0112 25.2932 18.0445 25.8426 17.2223C26.392 16.4 27.1729 15.7592 28.0865 15.3807C29.0002 15.0023 30.0055 14.9033 30.9754 15.0962C31.9453 15.2891 32.8362 15.7653 33.5355 16.4646C34.2348 17.1639 34.711 18.0548 34.9039 19.0247C35.0968 19.9946 34.9978 20.9999 34.6194 21.9136C34.2409 22.8272 33.6001 23.6081 32.7778 24.1575C31.9556 24.7069 30.9889 25.0001 30 25.0001C28.6739 25.0001 27.4021 24.4734 26.4644 23.5357C25.5268 22.598 25 21.3262 25 20.0001Z" fill="#0DFF85"/>
</g>
</svg>
