<svg width="22" height="23" viewBox="0 0 22 23" fill="none" xmlns="http://www.w3.org/2000/svg">
<path id="Vector" d="M11 0.5C8.82441 0.5 6.69767 1.14514 4.88873 2.35383C3.07979 3.56253 1.66989 5.28049 0.83733 7.29048C0.00476617 9.30047 -0.213071 11.5122 0.211367 13.646C0.635804 15.7798 1.68345 17.7398 3.22183 19.2782C4.76021 20.8166 6.72022 21.8642 8.85401 22.2886C10.9878 22.7131 13.1995 22.4952 15.2095 21.6627C17.2195 20.8301 18.9375 19.4202 20.1462 17.6113C21.3549 15.8023 22 13.6756 22 11.5C21.9966 8.58367 20.8365 5.78778 18.7744 3.72563C16.7122 1.66347 13.9163 0.50344 11 0.5ZM11 20.5C9.21997 20.5 7.47992 19.9722 5.99987 18.9832C4.51983 17.9943 3.36628 16.5887 2.68509 14.9442C2.0039 13.2996 1.82567 11.49 2.17294 9.74419C2.5202 7.99836 3.37737 6.39471 4.63604 5.13604C5.89472 3.87737 7.49836 3.0202 9.24419 2.67293C10.99 2.32567 12.7996 2.5039 14.4442 3.18508C16.0887 3.86627 17.4943 5.01983 18.4832 6.49987C19.4722 7.97991 20 9.71997 20 11.5C19.9971 13.8861 19.0479 16.1735 17.3608 17.8607C15.6736 19.5479 13.3861 20.4971 11 20.5ZM16.737 8.324C16.8258 8.42078 16.8946 8.5341 16.9396 8.65749C16.9846 8.78088 17.0048 8.91192 16.9992 9.04313C16.9935 9.17435 16.9621 9.30316 16.9066 9.42221C16.8512 9.54127 16.7728 9.64823 16.676 9.737L10.676 15.237C10.486 15.4112 10.2362 15.5053 9.97848 15.4997C9.7208 15.4941 9.47524 15.3893 9.293 15.207L6.293 12.207C6.1055 12.0194 6.00021 11.7649 6.0003 11.4996C6.0004 11.2344 6.10586 10.98 6.2935 10.7925C6.48115 10.605 6.73559 10.4997 7.00086 10.4998C7.26613 10.4999 7.5205 10.6054 7.708 10.793L10.031 13.116L15.325 8.263C15.5204 8.084 15.7789 7.98989 16.0436 8.00133C16.3084 8.01276 16.5578 8.12882 16.737 8.324Z" fill="#80CC28"/>
</svg>
