<svg width="22" height="23" viewBox="0 0 22 23" fill="none" xmlns="http://www.w3.org/2000/svg">
<path d="M2.156 15.672V11.512H8.108C9.92133 11.512 11.212 11.1387 11.98 10.392C12.748 9.624 13.132 8.696 13.132 7.608C13.132 6.30667 12.716 5.25067 11.884 4.44C11.052 3.62933 9.72933 3.23467 7.916 3.256H0.844V0.599998H21.068V3.256H13.356L14.444 1.816C15.8093 2.43467 16.8013 3.30933 17.42 4.44C18.0387 5.57067 18.348 6.78667 18.348 8.088C18.348 9.688 17.9533 11.0533 17.164 12.184C16.396 13.3147 15.2867 14.1787 13.836 14.776C12.3853 15.3733 10.6573 15.672 8.652 15.672H2.156ZM13.196 23L7.372 14.008H12.908L18.796 23H13.196ZM0.844 7.672V5.016H21.068V7.672H0.844Z" fill="#00E371"/>
</svg>
