<svg width="21" height="23" viewBox="0 0 21 23" fill="none" xmlns="http://www.w3.org/2000/svg">
<path d="M1.656 15.672V11.512H7.608C9.42133 11.512 10.712 11.1387 11.48 10.392C12.248 9.624 12.632 8.696 12.632 7.608C12.632 6.30667 12.216 5.25067 11.384 4.44C10.552 3.62933 9.22933 3.23467 7.416 3.256H0.344V0.599998H20.568V3.256H12.856L13.944 1.816C15.3093 2.43467 16.3013 3.30933 16.92 4.44C17.5387 5.57067 17.848 6.78667 17.848 8.088C17.848 9.688 17.4533 11.0533 16.664 12.184C15.896 13.3147 14.7867 14.1787 13.336 14.776C11.8853 15.3733 10.1573 15.672 8.152 15.672H1.656ZM12.696 23L6.872 14.008H12.408L18.296 23H12.696ZM0.344 7.672V5.016H20.568V7.672H0.344Z" fill="#57595A"/>
</svg>
